<svg height="512pt" viewBox="-64 0 512 512" width="512pt" xmlns="http://www.w3.org/2000/svg"><path d="m0 238.867188v217.964843c0 30.421875 24.746094 55.167969 55.164062 55.167969h273.136719c30.417969 0 55.167969-24.746094 55.167969-55.167969v-217.964843zm110.332031 129.601562c0 8.28125-6.714843 15-15 15-8.28125 0-15-6.71875-15-15v-80.335938c0-8.285156 6.71875-15 15-15 8.285157 0 15 6.714844 15 15zm0 0"/><path d="m383.464844 208.867188v-153.703126c0-30.417968-24.746094-55.164062-55.164063-55.164062h-273.136719c-30.417968 0-55.164062 24.746094-55.164062 55.164062v153.703126zm-303.132813-113.535157c0-8.28125 6.71875-15 15-15 8.285157 0 15 6.71875 15 15v64.269531c0 8.28125-6.714843 15-15 15-8.28125 0-15-6.71875-15-15zm0 0"/></svg>